<mxfile host="app.diagrams.net" modified="2022-01-19T01:21:10.819Z" agent="5.0 (Windows NT 10.0; Win64; x64) AppleWebKit/537.36 (KHTML, like Gecko) Chrome/97.0.4692.71 Safari/537.36" etag="yh4i1vxKRCAnXQ9gTQ3B" version="16.0.0" type="github">
  <diagram id="EljV-jeeuBofxPD4J9qD" name="Page-1">
    <mxGraphModel dx="2905" dy="992" grid="1" gridSize="10" guides="1" tooltips="1" connect="1" arrows="1" fold="1" page="1" pageScale="1" pageWidth="1169" pageHeight="827" math="0" shadow="0">
      <root>
        <mxCell id="0" />
        <mxCell id="1" parent="0" />
        <mxCell id="1BcZq6YOeLpfC2SoAyS1-1" value="&lt;p style=&quot;margin: 0px ; margin-top: 4px ; text-align: center&quot;&gt;&lt;b&gt;Revisores&lt;/b&gt;&lt;/p&gt;&lt;hr size=&quot;1&quot;&gt;&lt;p style=&quot;margin: 0px ; margin-left: 4px&quot;&gt;&lt;br&gt;&lt;/p&gt;" style="verticalAlign=top;align=left;overflow=fill;fontSize=12;fontFamily=Helvetica;html=1;" vertex="1" parent="1">
          <mxGeometry x="700" width="360" height="670" as="geometry" />
        </mxCell>
        <mxCell id="1BcZq6YOeLpfC2SoAyS1-2" value="&lt;p style=&quot;margin: 0px ; margin-top: 4px ; text-align: center&quot;&gt;&lt;b&gt;Autores&lt;/b&gt;&lt;/p&gt;&lt;hr size=&quot;1&quot;&gt;&lt;p style=&quot;margin: 0px ; margin-left: 4px&quot;&gt;&lt;br&gt;&lt;/p&gt;" style="verticalAlign=top;align=left;overflow=fill;fontSize=12;fontFamily=Helvetica;html=1;" vertex="1" parent="1">
          <mxGeometry x="340" width="360" height="670" as="geometry" />
        </mxCell>
        <mxCell id="1BcZq6YOeLpfC2SoAyS1-3" value="" style="ellipse;html=1;shape=startState;fillColor=#000000;strokeColor=#ff0000;" vertex="1" parent="1">
          <mxGeometry x="390" y="65" width="30" height="30" as="geometry" />
        </mxCell>
        <mxCell id="1BcZq6YOeLpfC2SoAyS1-4" value="" style="edgeStyle=orthogonalEdgeStyle;html=1;verticalAlign=bottom;endArrow=open;endSize=8;strokeColor=#000000;rounded=0;" edge="1" parent="1" source="1BcZq6YOeLpfC2SoAyS1-3" target="1BcZq6YOeLpfC2SoAyS1-5">
          <mxGeometry relative="1" as="geometry">
            <mxPoint x="420" y="155" as="targetPoint" />
          </mxGeometry>
        </mxCell>
        <mxCell id="1BcZq6YOeLpfC2SoAyS1-5" value="Acessar sistema" style="rounded=1;whiteSpace=wrap;html=1;arcSize=40;fontColor=#000000;fillColor=#ffffc0;strokeColor=#ff0000;" vertex="1" parent="1">
          <mxGeometry x="460" y="85" width="120" height="40" as="geometry" />
        </mxCell>
        <mxCell id="1BcZq6YOeLpfC2SoAyS1-6" value="" style="edgeStyle=orthogonalEdgeStyle;html=1;verticalAlign=bottom;endArrow=open;endSize=8;strokeColor=#000000;rounded=0;exitX=0.5;exitY=1;exitDx=0;exitDy=0;entryX=0.507;entryY=0.448;entryDx=0;entryDy=0;entryPerimeter=0;" edge="1" parent="1" source="1BcZq6YOeLpfC2SoAyS1-5" target="1BcZq6YOeLpfC2SoAyS1-7">
          <mxGeometry relative="1" as="geometry">
            <mxPoint x="510" y="172" as="targetPoint" />
            <Array as="points" />
          </mxGeometry>
        </mxCell>
        <mxCell id="1BcZq6YOeLpfC2SoAyS1-7" value="" style="shape=line;html=1;strokeWidth=6;strokeColor=#000000;" vertex="1" parent="1">
          <mxGeometry x="470" y="165" width="100" height="10" as="geometry" />
        </mxCell>
        <mxCell id="1BcZq6YOeLpfC2SoAyS1-8" value="Enviar artigo para o gerente" style="rounded=1;whiteSpace=wrap;html=1;arcSize=50;fontColor=#000000;fillColor=#ffffc0;strokeColor=#ff0000;" vertex="1" parent="1">
          <mxGeometry x="370" y="225" width="120" height="40" as="geometry" />
        </mxCell>
        <mxCell id="1BcZq6YOeLpfC2SoAyS1-9" style="edgeStyle=orthogonalEdgeStyle;rounded=0;orthogonalLoop=1;jettySize=auto;html=1;exitX=0.5;exitY=1;exitDx=0;exitDy=0;strokeColor=#000000;entryX=0.75;entryY=0.5;entryDx=0;entryDy=0;entryPerimeter=0;" edge="1" parent="1" source="1BcZq6YOeLpfC2SoAyS1-10" target="1BcZq6YOeLpfC2SoAyS1-20">
          <mxGeometry relative="1" as="geometry" />
        </mxCell>
        <mxCell id="1BcZq6YOeLpfC2SoAyS1-10" value="Cadastrar" style="rounded=1;whiteSpace=wrap;html=1;arcSize=40;fontColor=#000000;fillColor=#ffffc0;strokeColor=#ff0000;" vertex="1" parent="1">
          <mxGeometry x="830" y="225" width="120" height="40" as="geometry" />
        </mxCell>
        <mxCell id="1BcZq6YOeLpfC2SoAyS1-11" value="" style="edgeStyle=orthogonalEdgeStyle;html=1;verticalAlign=bottom;endArrow=classic;endSize=8;strokeColor=#000000;rounded=0;exitX=0.25;exitY=0.5;exitDx=0;exitDy=0;entryX=0.5;entryY=0;entryDx=0;entryDy=0;exitPerimeter=0;endFill=1;" edge="1" parent="1" target="1BcZq6YOeLpfC2SoAyS1-8">
          <mxGeometry relative="1" as="geometry">
            <mxPoint x="493.0000000000001" y="235" as="targetPoint" />
            <mxPoint x="498" y="170" as="sourcePoint" />
            <Array as="points">
              <mxPoint x="493" y="170" />
              <mxPoint x="493" y="195" />
              <mxPoint x="430" y="195" />
            </Array>
          </mxGeometry>
        </mxCell>
        <mxCell id="1BcZq6YOeLpfC2SoAyS1-12" value="" style="edgeStyle=orthogonalEdgeStyle;html=1;verticalAlign=bottom;endArrow=open;endSize=8;strokeColor=#000000;rounded=0;exitX=0.75;exitY=0.5;exitDx=0;exitDy=0;entryX=0.5;entryY=0;entryDx=0;entryDy=0;exitPerimeter=0;" edge="1" parent="1" source="1BcZq6YOeLpfC2SoAyS1-7" target="1BcZq6YOeLpfC2SoAyS1-10">
          <mxGeometry relative="1" as="geometry">
            <mxPoint x="530.7" y="179.48000000000002" as="targetPoint" />
            <mxPoint x="530.0000000000001" y="135" as="sourcePoint" />
            <Array as="points">
              <mxPoint x="560" y="170" />
              <mxPoint x="560" y="179" />
              <mxPoint x="890" y="179" />
            </Array>
          </mxGeometry>
        </mxCell>
        <mxCell id="1BcZq6YOeLpfC2SoAyS1-13" value="&lt;p style=&quot;margin: 0px ; margin-top: 4px ; text-align: center&quot;&gt;&lt;b&gt;Gerente&lt;/b&gt;&lt;/p&gt;&lt;hr size=&quot;1&quot;&gt;&lt;p style=&quot;margin: 0px ; margin-left: 4px&quot;&gt;&lt;br&gt;&lt;/p&gt;" style="verticalAlign=top;align=left;overflow=fill;fontSize=12;fontFamily=Helvetica;html=1;" vertex="1" parent="1">
          <mxGeometry x="-10" width="360" height="670" as="geometry" />
        </mxCell>
        <mxCell id="1BcZq6YOeLpfC2SoAyS1-14" style="edgeStyle=orthogonalEdgeStyle;rounded=0;orthogonalLoop=1;jettySize=auto;html=1;exitX=0.5;exitY=1;exitDx=0;exitDy=0;entryX=0.25;entryY=0.5;entryDx=0;entryDy=0;entryPerimeter=0;strokeColor=#000000;" edge="1" parent="1" source="1BcZq6YOeLpfC2SoAyS1-15" target="1BcZq6YOeLpfC2SoAyS1-20">
          <mxGeometry relative="1" as="geometry" />
        </mxCell>
        <mxCell id="1BcZq6YOeLpfC2SoAyS1-15" value="Distribuir artigo para revisores" style="rounded=1;whiteSpace=wrap;html=1;arcSize=50;fontColor=#000000;fillColor=#ffffc0;strokeColor=#ff0000;" vertex="1" parent="1">
          <mxGeometry x="120" y="225" width="120" height="40" as="geometry" />
        </mxCell>
        <mxCell id="1BcZq6YOeLpfC2SoAyS1-16" value="" style="edgeStyle=orthogonalEdgeStyle;html=1;verticalAlign=bottom;endArrow=classic;endSize=8;strokeColor=#000000;rounded=0;exitX=0;exitY=0.5;exitDx=0;exitDy=0;entryX=1;entryY=0.5;entryDx=0;entryDy=0;endFill=1;" edge="1" parent="1" source="1BcZq6YOeLpfC2SoAyS1-8" target="1BcZq6YOeLpfC2SoAyS1-15">
          <mxGeometry relative="1" as="geometry">
            <mxPoint x="190" y="165" as="targetPoint" />
            <mxPoint x="258" y="110" as="sourcePoint" />
            <Array as="points">
              <mxPoint x="258" y="245" />
              <mxPoint x="258" y="245" />
            </Array>
          </mxGeometry>
        </mxCell>
        <mxCell id="1BcZq6YOeLpfC2SoAyS1-17" style="edgeStyle=orthogonalEdgeStyle;rounded=0;orthogonalLoop=1;jettySize=auto;html=1;exitX=0.5;exitY=1;exitDx=0;exitDy=0;entryX=0.5;entryY=0;entryDx=0;entryDy=0;strokeColor=#000000;" edge="1" parent="1" source="1BcZq6YOeLpfC2SoAyS1-18" target="1BcZq6YOeLpfC2SoAyS1-22">
          <mxGeometry relative="1" as="geometry" />
        </mxCell>
        <mxCell id="1BcZq6YOeLpfC2SoAyS1-18" value="Acessar artigos" style="rounded=1;whiteSpace=wrap;html=1;arcSize=50;fontColor=#000000;fillColor=#ffffc0;strokeColor=#ff0000;" vertex="1" parent="1">
          <mxGeometry x="805" y="390" width="120" height="40" as="geometry" />
        </mxCell>
        <mxCell id="1BcZq6YOeLpfC2SoAyS1-19" value="" style="edgeStyle=orthogonalEdgeStyle;rounded=0;orthogonalLoop=1;jettySize=auto;html=1;strokeColor=#000000;exitX=0.498;exitY=0.659;exitDx=0;exitDy=0;exitPerimeter=0;" edge="1" parent="1" source="1BcZq6YOeLpfC2SoAyS1-20" target="1BcZq6YOeLpfC2SoAyS1-18">
          <mxGeometry relative="1" as="geometry" />
        </mxCell>
        <mxCell id="1BcZq6YOeLpfC2SoAyS1-20" value="" style="shape=line;html=1;strokeWidth=6;strokeColor=#000000;" vertex="1" parent="1">
          <mxGeometry x="815" y="340" width="100" height="10" as="geometry" />
        </mxCell>
        <mxCell id="1BcZq6YOeLpfC2SoAyS1-21" style="edgeStyle=orthogonalEdgeStyle;rounded=0;orthogonalLoop=1;jettySize=auto;html=1;exitX=0.5;exitY=1;exitDx=0;exitDy=0;entryX=0.5;entryY=0;entryDx=0;entryDy=0;endArrow=classic;endFill=1;strokeColor=#000000;" edge="1" parent="1" source="1BcZq6YOeLpfC2SoAyS1-22" target="1BcZq6YOeLpfC2SoAyS1-24">
          <mxGeometry relative="1" as="geometry" />
        </mxCell>
        <mxCell id="1BcZq6YOeLpfC2SoAyS1-22" value="Revisar Artigos" style="rounded=1;whiteSpace=wrap;html=1;arcSize=50;fontColor=#000000;fillColor=#ffffc0;strokeColor=#ff0000;" vertex="1" parent="1">
          <mxGeometry x="805" y="460" width="120" height="40" as="geometry" />
        </mxCell>
        <mxCell id="1BcZq6YOeLpfC2SoAyS1-23" value="" style="edgeStyle=orthogonalEdgeStyle;rounded=0;orthogonalLoop=1;jettySize=auto;html=1;endArrow=classic;endFill=1;strokeColor=#000000;entryX=1;entryY=0.5;entryDx=0;entryDy=0;" edge="1" parent="1" source="1BcZq6YOeLpfC2SoAyS1-24" target="1BcZq6YOeLpfC2SoAyS1-26">
          <mxGeometry relative="1" as="geometry">
            <Array as="points">
              <mxPoint x="740" y="550" />
              <mxPoint x="740" y="380" />
            </Array>
          </mxGeometry>
        </mxCell>
        <mxCell id="1BcZq6YOeLpfC2SoAyS1-24" value="Enviar revisão" style="rounded=1;whiteSpace=wrap;html=1;arcSize=50;fontColor=#000000;fillColor=#ffffc0;strokeColor=#ff0000;" vertex="1" parent="1">
          <mxGeometry x="805" y="530" width="120" height="40" as="geometry" />
        </mxCell>
        <mxCell id="1BcZq6YOeLpfC2SoAyS1-25" style="edgeStyle=orthogonalEdgeStyle;rounded=0;orthogonalLoop=1;jettySize=auto;html=1;exitX=0.5;exitY=1;exitDx=0;exitDy=0;entryX=0;entryY=0.5;entryDx=0;entryDy=0;endArrow=classic;endFill=1;strokeColor=#000000;" edge="1" parent="1" source="1BcZq6YOeLpfC2SoAyS1-26" target="1BcZq6YOeLpfC2SoAyS1-31">
          <mxGeometry relative="1" as="geometry" />
        </mxCell>
        <mxCell id="1BcZq6YOeLpfC2SoAyS1-26" value="Informar os autores" style="rounded=1;whiteSpace=wrap;html=1;arcSize=50;fontColor=#000000;fillColor=#ffffc0;strokeColor=#ff0000;" vertex="1" parent="1">
          <mxGeometry x="120" y="360" width="120" height="40" as="geometry" />
        </mxCell>
        <mxCell id="1BcZq6YOeLpfC2SoAyS1-27" style="edgeStyle=orthogonalEdgeStyle;rounded=0;orthogonalLoop=1;jettySize=auto;html=1;exitX=1;exitY=0.5;exitDx=0;exitDy=0;entryX=0.5;entryY=0;entryDx=0;entryDy=0;endArrow=classic;endFill=1;strokeColor=#000000;" edge="1" parent="1" source="1BcZq6YOeLpfC2SoAyS1-31" target="1BcZq6YOeLpfC2SoAyS1-32">
          <mxGeometry relative="1" as="geometry">
            <Array as="points">
              <mxPoint x="615" y="444" />
            </Array>
          </mxGeometry>
        </mxCell>
        <mxCell id="1BcZq6YOeLpfC2SoAyS1-28" value="Não" style="edgeLabel;html=1;align=center;verticalAlign=middle;resizable=0;points=[];" vertex="1" connectable="0" parent="1BcZq6YOeLpfC2SoAyS1-27">
          <mxGeometry x="-0.7502" y="2" relative="1" as="geometry">
            <mxPoint as="offset" />
          </mxGeometry>
        </mxCell>
        <mxCell id="1BcZq6YOeLpfC2SoAyS1-29" style="edgeStyle=orthogonalEdgeStyle;rounded=0;orthogonalLoop=1;jettySize=auto;html=1;exitX=0.5;exitY=1;exitDx=0;exitDy=0;entryX=0.5;entryY=0;entryDx=0;entryDy=0;endArrow=classic;endFill=1;strokeColor=#000000;" edge="1" parent="1" source="1BcZq6YOeLpfC2SoAyS1-31" target="1BcZq6YOeLpfC2SoAyS1-34">
          <mxGeometry relative="1" as="geometry" />
        </mxCell>
        <mxCell id="1BcZq6YOeLpfC2SoAyS1-30" value="Sim" style="edgeLabel;html=1;align=center;verticalAlign=middle;resizable=0;points=[];" vertex="1" connectable="0" parent="1BcZq6YOeLpfC2SoAyS1-29">
          <mxGeometry x="-0.2194" y="2" relative="1" as="geometry">
            <mxPoint as="offset" />
          </mxGeometry>
        </mxCell>
        <mxCell id="1BcZq6YOeLpfC2SoAyS1-31" value="Artigo aceito?" style="rhombus;whiteSpace=wrap;html=1;fillColor=#ffffc0;strokeColor=#ff0000;labelBackgroundColor=#FFE599;" vertex="1" parent="1">
          <mxGeometry x="450" y="414" width="120" height="60" as="geometry" />
        </mxCell>
        <mxCell id="1BcZq6YOeLpfC2SoAyS1-32" value="" style="ellipse;html=1;shape=endState;fillColor=#000000;strokeColor=#ff0000;labelBackgroundColor=#FFE599;" vertex="1" parent="1">
          <mxGeometry x="600" y="600" width="30" height="30" as="geometry" />
        </mxCell>
        <mxCell id="1BcZq6YOeLpfC2SoAyS1-33" style="edgeStyle=orthogonalEdgeStyle;rounded=0;orthogonalLoop=1;jettySize=auto;html=1;exitX=0.5;exitY=1;exitDx=0;exitDy=0;entryX=0;entryY=0.5;entryDx=0;entryDy=0;endArrow=classic;endFill=1;strokeColor=#000000;" edge="1" parent="1" source="1BcZq6YOeLpfC2SoAyS1-34" target="1BcZq6YOeLpfC2SoAyS1-32">
          <mxGeometry relative="1" as="geometry" />
        </mxCell>
        <mxCell id="1BcZq6YOeLpfC2SoAyS1-34" value="Publicar o artigo" style="rounded=1;whiteSpace=wrap;html=1;arcSize=50;fontColor=#000000;fillColor=#ffffc0;strokeColor=#ff0000;" vertex="1" parent="1">
          <mxGeometry x="450" y="530" width="120" height="40" as="geometry" />
        </mxCell>
      </root>
    </mxGraphModel>
  </diagram>
</mxfile>
